<svg xmlns="http://www.w3.org/2000/svg" viewBox="0 0 40 500" width="40" height="500">
  <defs>
    <radialGradient id="yellowFlower">
      <stop offset="0%" stop-color="#FFE082"/>
      <stop offset="60%" stop-color="#FFD54F"/>
      <stop offset="100%" stop-color="#FFC107"/>
    </radialGradient>
    <radialGradient id="orangeFlower">
      <stop offset="0%" stop-color="#FFB74D"/>
      <stop offset="60%" stop-color="#FF9800"/>
      <stop offset="100%" stop-color="#F57C00"/>
    </radialGradient>
  </defs>
  <!-- Thread -->
  <line x1="20" y1="0" x2="20" y2="500" stroke="#8D6E63" stroke-width="1.5"/>
  <!-- Marigold flowers alternating yellow and orange -->
  <g>
    <circle cx="20" cy="20" r="12" fill="url(#orangeFlower)"/>
    <circle cx="20" cy="16" r="4" fill="#FFE082" opacity="0.6"/>

    <circle cx="20" cy="52" r="12" fill="url(#yellowFlower)"/>
    <circle cx="20" cy="48" r="4" fill="#FFF9C4" opacity="0.6"/>

    <circle cx="20" cy="84" r="12" fill="url(#orangeFlower)"/>
    <circle cx="20" cy="80" r="4" fill="#FFE082" opacity="0.6"/>

    <circle cx="20" cy="116" r="12" fill="url(#yellowFlower)"/>
    <circle cx="20" cy="112" r="4" fill="#FFF9C4" opacity="0.6"/>

    <circle cx="20" cy="148" r="12" fill="url(#orangeFlower)"/>
    <circle cx="20" cy="144" r="4" fill="#FFE082" opacity="0.6"/>

    <circle cx="20" cy="180" r="12" fill="url(#yellowFlower)"/>
    <circle cx="20" cy="176" r="4" fill="#FFF9C4" opacity="0.6"/>

    <circle cx="20" cy="212" r="12" fill="url(#orangeFlower)"/>
    <circle cx="20" cy="208" r="4" fill="#FFE082" opacity="0.6"/>

    <circle cx="20" cy="244" r="12" fill="url(#yellowFlower)"/>
    <circle cx="20" cy="240" r="4" fill="#FFF9C4" opacity="0.6"/>

    <circle cx="20" cy="276" r="12" fill="url(#orangeFlower)"/>
    <circle cx="20" cy="272" r="4" fill="#FFE082" opacity="0.6"/>

    <circle cx="20" cy="308" r="12" fill="url(#yellowFlower)"/>
    <circle cx="20" cy="304" r="4" fill="#FFF9C4" opacity="0.6"/>

    <circle cx="20" cy="340" r="12" fill="url(#orangeFlower)"/>
    <circle cx="20" cy="336" r="4" fill="#FFE082" opacity="0.6"/>

    <circle cx="20" cy="372" r="12" fill="url(#yellowFlower)"/>
    <circle cx="20" cy="368" r="4" fill="#FFF9C4" opacity="0.6"/>

    <circle cx="20" cy="404" r="12" fill="url(#orangeFlower)"/>
    <circle cx="20" cy="400" r="4" fill="#FFE082" opacity="0.6"/>

    <circle cx="20" cy="436" r="12" fill="url(#yellowFlower)"/>
    <circle cx="20" cy="432" r="4" fill="#FFF9C4" opacity="0.6"/>

    <circle cx="20" cy="468" r="12" fill="url(#orangeFlower)"/>
    <circle cx="20" cy="464" r="4" fill="#FFE082" opacity="0.6"/>

    <circle cx="20" cy="500" r="12" fill="url(#yellowFlower)"/>
    <circle cx="20" cy="496" r="4" fill="#FFF9C4" opacity="0.6"/>
  </g>
</svg>
